<svg xmlns="http://www.w3.org/2000/svg" width="1200" height="442" viewBox="0 0 1200 442" font-family="Arial, Helvetica, sans-serif">
<rect width="100%" height="100%" fill="#09242b"/>
<line x1="130.0" y1="15" x2="130.0" y2="320" stroke="#24454d"/>
<line x1="130.0" y1="320" x2="130.0" y2="326" stroke="#afc8cb"/>
<text x="130.0" y="344.0" text-anchor="middle" font-size="16" font-weight="normal" fill="#afc8cb">0</text>
<line x1="210.4" y1="15" x2="210.4" y2="320" stroke="#24454d"/>
<line x1="210.4" y1="320" x2="210.4" y2="326" stroke="#afc8cb"/>
<text x="210.4" y="344.0" text-anchor="middle" font-size="16" font-weight="normal" fill="#afc8cb">50</text>
<line x1="290.7" y1="15" x2="290.7" y2="320" stroke="#24454d"/>
<line x1="290.7" y1="320" x2="290.7" y2="326" stroke="#afc8cb"/>
<text x="290.7" y="344.0" text-anchor="middle" font-size="16" font-weight="normal" fill="#afc8cb">100</text>
<line x1="371.1" y1="15" x2="371.1" y2="320" stroke="#24454d"/>
<line x1="371.1" y1="320" x2="371.1" y2="326" stroke="#afc8cb"/>
<text x="371.1" y="344.0" text-anchor="middle" font-size="16" font-weight="normal" fill="#afc8cb">150</text>
<line x1="451.5" y1="15" x2="451.5" y2="320" stroke="#24454d"/>
<line x1="451.5" y1="320" x2="451.5" y2="326" stroke="#afc8cb"/>
<text x="451.5" y="344.0" text-anchor="middle" font-size="16" font-weight="normal" fill="#afc8cb">200</text>
<line x1="531.9" y1="15" x2="531.9" y2="320" stroke="#24454d"/>
<line x1="531.9" y1="320" x2="531.9" y2="326" stroke="#afc8cb"/>
<text x="531.9" y="344.0" text-anchor="middle" font-size="16" font-weight="normal" fill="#afc8cb">250</text>
<line x1="612.2" y1="15" x2="612.2" y2="320" stroke="#24454d"/>
<line x1="612.2" y1="320" x2="612.2" y2="326" stroke="#afc8cb"/>
<text x="612.2" y="344.0" text-anchor="middle" font-size="16" font-weight="normal" fill="#afc8cb">300</text>
<line x1="692.6" y1="15" x2="692.6" y2="320" stroke="#24454d"/>
<line x1="692.6" y1="320" x2="692.6" y2="326" stroke="#afc8cb"/>
<text x="692.6" y="344.0" text-anchor="middle" font-size="16" font-weight="normal" fill="#afc8cb">350</text>
<line x1="773.0" y1="15" x2="773.0" y2="320" stroke="#24454d"/>
<line x1="773.0" y1="320" x2="773.0" y2="326" stroke="#afc8cb"/>
<text x="773.0" y="344.0" text-anchor="middle" font-size="16" font-weight="normal" fill="#afc8cb">400</text>
<line x1="853.3" y1="15" x2="853.3" y2="320" stroke="#24454d"/>
<line x1="853.3" y1="320" x2="853.3" y2="326" stroke="#afc8cb"/>
<text x="853.3" y="344.0" text-anchor="middle" font-size="16" font-weight="normal" fill="#afc8cb">450</text>
<line x1="933.7" y1="15" x2="933.7" y2="320" stroke="#24454d"/>
<line x1="933.7" y1="320" x2="933.7" y2="326" stroke="#afc8cb"/>
<text x="933.7" y="344.0" text-anchor="middle" font-size="16" font-weight="normal" fill="#afc8cb">500</text>
<line x1="1014.1" y1="15" x2="1014.1" y2="320" stroke="#24454d"/>
<line x1="1014.1" y1="320" x2="1014.1" y2="326" stroke="#afc8cb"/>
<text x="1014.1" y="344.0" text-anchor="middle" font-size="16" font-weight="normal" fill="#afc8cb">550</text>
<line x1="1094.5" y1="15" x2="1094.5" y2="320" stroke="#24454d"/>
<line x1="1094.5" y1="320" x2="1094.5" y2="326" stroke="#afc8cb"/>
<text x="1094.5" y="344.0" text-anchor="middle" font-size="16" font-weight="normal" fill="#afc8cb">600</text>
<line x1="1170.0" y1="15" x2="1170.0" y2="320" stroke="#24454d"/>
<line x1="1170.0" y1="320" x2="1170.0" y2="326" stroke="#afc8cb"/>
<text x="1170.0" y="344.0" text-anchor="middle" font-size="16" font-weight="normal" fill="#afc8cb">647</text>
<line x1="130" y1="320" x2="1170" y2="320" stroke="#afc8cb"/>
<text x="650.0" y="370.0" text-anchor="middle" font-size="16" font-weight="normal" fill="#afc8cb">步骤开始后的时间（µs）</text>
<text x="116" y="61.0" text-anchor="end" font-size="18" fill="#afc8cb">发起端发送</text>
<rect x="130.0" y="30" width="41.8" height="50" fill="#ffb17a"/>
<rect x="171.8" y="30" width="16.1" height="50" fill="#6f9199"/>
<rect x="187.9" y="30" width="3.2" height="50" fill="#6f9199"/>
<rect x="191.1" y="30" width="64.3" height="50" fill="#ffb17a"/>
<text x="223.2" y="60.7" text-anchor="middle" font-size="17" font-weight="bold" fill="#09242b">P1</text>
<rect x="255.4" y="30" width="3.2" height="50" fill="#6f9199"/>
<rect x="258.6" y="30" width="64.3" height="50" fill="#ffb17a"/>
<text x="290.7" y="60.7" text-anchor="middle" font-size="17" font-weight="bold" fill="#09242b">P2</text>
<rect x="322.9" y="30" width="3.2" height="50" fill="#6f9199"/>
<rect x="326.1" y="30" width="64.3" height="50" fill="#ffb17a"/>
<text x="358.3" y="60.7" text-anchor="middle" font-size="17" font-weight="bold" fill="#09242b">P3</text>
<rect x="390.4" y="30" width="3.2" height="50" fill="#6f9199"/>
<rect x="393.6" y="30" width="64.3" height="50" fill="#ffb17a"/>
<text x="425.8" y="60.7" text-anchor="middle" font-size="17" font-weight="bold" fill="#09242b">P4</text>
<rect x="457.9" y="30" width="3.2" height="50" fill="#6f9199"/>
<rect x="461.1" y="30" width="64.3" height="50" fill="#d9bd86"/>
<rect x="525.4" y="30" width="8.0" height="50" fill="#6f9199"/>
<text x="150.9" y="98.0" text-anchor="middle" font-size="15" font-weight="normal" fill="#f5f5ed">CS_SYNC</text>
<text x="179.8" y="116.0" text-anchor="middle" font-size="15" font-weight="normal" fill="#f5f5ed">T<tspan dy="4.5" font-size="10.8">GD</tspan></text>
<text x="529.4" y="98.0" text-anchor="middle" font-size="15" font-weight="normal" fill="#f5f5ed">T<tspan dy="4.5" font-size="10.8">RD</tspan></text>
<text x="257.0" y="98.0" text-anchor="middle" font-size="15" font-weight="normal" fill="#f5f5ed">T<tspan dy="4.5" font-size="10.8">SW</tspan></text>
<text x="324.5" y="98.0" text-anchor="middle" font-size="15" font-weight="normal" fill="#f5f5ed">T<tspan dy="4.5" font-size="10.8">SW</tspan></text>
<text x="392.0" y="98.0" text-anchor="middle" font-size="15" font-weight="normal" fill="#f5f5ed">T<tspan dy="4.5" font-size="10.8">SW</tspan></text>
<text x="459.5" y="98.0" text-anchor="middle" font-size="15" font-weight="normal" fill="#f5f5ed">T<tspan dy="4.5" font-size="10.8">SW</tspan></text>
<text x="493.3" y="116.0" text-anchor="middle" font-size="15" font-weight="normal" fill="#f5f5ed">扩展</text>
<text x="116" y="166.0" text-anchor="end" font-size="18" fill="#afc8cb">反射端发送</text>
<rect x="766.5" y="135" width="3.2" height="50" fill="#6f9199"/>
<rect x="769.8" y="135" width="64.3" height="50" fill="#ffb17a"/>
<text x="801.9" y="165.7" text-anchor="middle" font-size="17" font-weight="bold" fill="#09242b">P1</text>
<rect x="834.0" y="135" width="3.2" height="50" fill="#6f9199"/>
<rect x="837.3" y="135" width="64.3" height="50" fill="#ffb17a"/>
<text x="869.4" y="165.7" text-anchor="middle" font-size="17" font-weight="bold" fill="#09242b">P2</text>
<rect x="901.6" y="135" width="3.2" height="50" fill="#6f9199"/>
<rect x="904.8" y="135" width="64.3" height="50" fill="#ffb17a"/>
<text x="936.9" y="165.7" text-anchor="middle" font-size="17" font-weight="bold" fill="#09242b">P3</text>
<rect x="969.1" y="135" width="3.2" height="50" fill="#6f9199"/>
<rect x="972.3" y="135" width="64.3" height="50" fill="#ffb17a"/>
<text x="1004.4" y="165.7" text-anchor="middle" font-size="17" font-weight="bold" fill="#09242b">P4</text>
<rect x="1036.6" y="135" width="3.2" height="50" fill="#6f9199"/>
<rect x="1039.8" y="135" width="64.3" height="50" fill="#d9bd86"/>
<rect x="1104.1" y="135" width="16.1" height="50" fill="#6f9199"/>
<rect x="1120.2" y="135" width="41.8" height="50" fill="#ffb17a"/>
<rect x="1162.0" y="135" width="8.0" height="50" fill="#6f9199"/>
<text x="1141.1" y="203.0" text-anchor="middle" font-size="15" font-weight="normal" fill="#f5f5ed">CS_SYNC</text>
<text x="1112.1" y="221.0" text-anchor="middle" font-size="15" font-weight="normal" fill="#f5f5ed">T<tspan dy="4.5" font-size="10.8">GD</tspan></text>
<text x="1166.0" y="221.0" text-anchor="middle" font-size="15" font-weight="normal" fill="#f5f5ed">T<tspan dy="4.5" font-size="10.8">RD</tspan></text>
<text x="768.1" y="203.0" text-anchor="middle" font-size="15" font-weight="normal" fill="#f5f5ed">T<tspan dy="4.5" font-size="10.8">SW</tspan></text>
<text x="835.7" y="203.0" text-anchor="middle" font-size="15" font-weight="normal" fill="#f5f5ed">T<tspan dy="4.5" font-size="10.8">SW</tspan></text>
<text x="903.2" y="203.0" text-anchor="middle" font-size="15" font-weight="normal" fill="#f5f5ed">T<tspan dy="4.5" font-size="10.8">SW</tspan></text>
<text x="970.7" y="203.0" text-anchor="middle" font-size="15" font-weight="normal" fill="#f5f5ed">T<tspan dy="4.5" font-size="10.8">SW</tspan></text>
<text x="1038.2" y="203.0" text-anchor="middle" font-size="15" font-weight="normal" fill="#f5f5ed">T<tspan dy="4.5" font-size="10.8">SW</tspan></text>
<text x="116" y="271.0" text-anchor="end" font-size="18" fill="#afc8cb">时序</text>
<rect x="533.5" y="240" width="233.1" height="50" fill="#6f9199"/>
<text x="650.0" y="270.7" text-anchor="middle" font-size="17" font-weight="bold" fill="#09242b">T<tspan dy="5.1" font-size="12.2">IP2</tspan></text>
<rect x="130" y="392" width="18" height="18" fill="#ffb17a"/>
<text x="156" y="407" font-size="16" fill="#f5f5ed">发送</text>
<rect x="299.68" y="392" width="18" height="18" fill="#6f9199"/>
<text x="325.68" y="407" font-size="16" fill="#f5f5ed">保护、功率下降、天线切换或收发间隔</text>
<rect x="685.36" y="392" width="18" height="18" fill="#d9bd86"/>
<text x="711.36" y="407" font-size="16" fill="#f5f5ed">单音扩展时隙</text>
<text x="130" y="434" font-size="15" fill="#afc8cb">模式 3：647 µs，按比例绘制。默认值：LE 2M CS_SYNC，T_IP2 = 145 µs，T_SW = 2 µs，T_PM = 40 µs；4 条天线路径（ACI 6）。</text>
</svg>
