<svg xmlns="http://www.w3.org/2000/svg" width="1200" height="442" viewBox="0 0 1200 442" font-family="Arial, Helvetica, sans-serif">
<rect width="100%" height="100%" fill="#09242b"/>
<line x1="130.0" y1="15" x2="130.0" y2="320" stroke="#24454d"/>
<line x1="130.0" y1="320" x2="130.0" y2="326" stroke="#afc8cb"/>
<text x="130.0" y="344.0" text-anchor="middle" font-size="16" font-weight="normal" fill="#afc8cb">0</text>
<line x1="381.2" y1="15" x2="381.2" y2="320" stroke="#24454d"/>
<line x1="381.2" y1="320" x2="381.2" y2="326" stroke="#afc8cb"/>
<text x="381.2" y="344.0" text-anchor="middle" font-size="16" font-weight="normal" fill="#afc8cb">50</text>
<line x1="632.4" y1="15" x2="632.4" y2="320" stroke="#24454d"/>
<line x1="632.4" y1="320" x2="632.4" y2="326" stroke="#afc8cb"/>
<text x="632.4" y="344.0" text-anchor="middle" font-size="16" font-weight="normal" fill="#afc8cb">100</text>
<line x1="883.6" y1="15" x2="883.6" y2="320" stroke="#24454d"/>
<line x1="883.6" y1="320" x2="883.6" y2="326" stroke="#afc8cb"/>
<text x="883.6" y="344.0" text-anchor="middle" font-size="16" font-weight="normal" fill="#afc8cb">150</text>
<line x1="1170.0" y1="15" x2="1170.0" y2="320" stroke="#24454d"/>
<line x1="1170.0" y1="320" x2="1170.0" y2="326" stroke="#afc8cb"/>
<text x="1170.0" y="344.0" text-anchor="middle" font-size="16" font-weight="normal" fill="#afc8cb">207</text>
<line x1="130" y1="320" x2="1170" y2="320" stroke="#afc8cb"/>
<text x="650.0" y="370.0" text-anchor="middle" font-size="16" font-weight="normal" fill="#afc8cb">步骤开始后的时间（µs）</text>
<text x="116" y="61.0" text-anchor="end" font-size="18" fill="#afc8cb">发起端发送</text>
<rect x="130.0" y="30" width="130.6" height="50" fill="#78cbd8"/>
<text x="195.3" y="60.7" text-anchor="middle" font-size="17" font-weight="bold" fill="#09242b">CS_SYNC</text>
<rect x="260.6" y="30" width="25.1" height="50" fill="#6f9199"/>
<text x="273.2" y="98.0" text-anchor="middle" font-size="15" font-weight="normal" fill="#f5f5ed">T<tspan dy="4.5" font-size="10.8">RD</tspan></text>
<text x="116" y="166.0" text-anchor="end" font-size="18" fill="#afc8cb">反射端发送</text>
<rect x="1014.3" y="135" width="130.6" height="50" fill="#78cbd8"/>
<text x="1079.6" y="165.7" text-anchor="middle" font-size="17" font-weight="bold" fill="#09242b">CS_SYNC</text>
<rect x="1144.9" y="135" width="25.1" height="50" fill="#6f9199"/>
<text x="1157.4" y="203.0" text-anchor="middle" font-size="15" font-weight="normal" fill="#f5f5ed">T<tspan dy="4.5" font-size="10.8">RD</tspan></text>
<text x="116" y="271.0" text-anchor="end" font-size="18" fill="#afc8cb">时序</text>
<rect x="285.7" y="240" width="728.5" height="50" fill="#6f9199"/>
<text x="650.0" y="270.7" text-anchor="middle" font-size="17" font-weight="bold" fill="#09242b">T<tspan dy="5.1" font-size="12.2">IP1</tspan></text>
<rect x="130" y="392" width="18" height="18" fill="#78cbd8"/>
<text x="156" y="407" font-size="16" fill="#f5f5ed">发送</text>
<rect x="299.68" y="392" width="18" height="18" fill="#6f9199"/>
<text x="325.68" y="407" font-size="16" fill="#f5f5ed">保护、功率下降、天线切换或收发间隔</text>
<text x="130" y="434" font-size="15" fill="#afc8cb">模式 1：207 µs，按比例绘制。规划器默认值：LE 2M CS_SYNC，T_IP1 = 145 µs。</text>
</svg>
