<svg xmlns="http://www.w3.org/2000/svg" width="1200" height="442" viewBox="0 0 1200 442" font-family="Arial, Helvetica, sans-serif">
<rect width="100%" height="100%" fill="#09242b"/>
<line x1="130.0" y1="15" x2="130.0" y2="320" stroke="#24454d"/>
<line x1="130.0" y1="320" x2="130.0" y2="326" stroke="#afc8cb"/>
<text x="130.0" y="344.0" text-anchor="middle" font-size="16" font-weight="normal" fill="#afc8cb">0</text>
<line x1="291.0" y1="15" x2="291.0" y2="320" stroke="#24454d"/>
<line x1="291.0" y1="320" x2="291.0" y2="326" stroke="#afc8cb"/>
<text x="291.0" y="344.0" text-anchor="middle" font-size="16" font-weight="normal" fill="#afc8cb">50</text>
<line x1="452.0" y1="15" x2="452.0" y2="320" stroke="#24454d"/>
<line x1="452.0" y1="320" x2="452.0" y2="326" stroke="#afc8cb"/>
<text x="452.0" y="344.0" text-anchor="middle" font-size="16" font-weight="normal" fill="#afc8cb">100</text>
<line x1="613.0" y1="15" x2="613.0" y2="320" stroke="#24454d"/>
<line x1="613.0" y1="320" x2="613.0" y2="326" stroke="#afc8cb"/>
<text x="613.0" y="344.0" text-anchor="middle" font-size="16" font-weight="normal" fill="#afc8cb">150</text>
<line x1="774.0" y1="15" x2="774.0" y2="320" stroke="#24454d"/>
<line x1="774.0" y1="320" x2="774.0" y2="326" stroke="#afc8cb"/>
<text x="774.0" y="344.0" text-anchor="middle" font-size="16" font-weight="normal" fill="#afc8cb">200</text>
<line x1="935.0" y1="15" x2="935.0" y2="320" stroke="#24454d"/>
<line x1="935.0" y1="320" x2="935.0" y2="326" stroke="#afc8cb"/>
<text x="935.0" y="344.0" text-anchor="middle" font-size="16" font-weight="normal" fill="#afc8cb">250</text>
<line x1="1095.9" y1="15" x2="1095.9" y2="320" stroke="#24454d"/>
<line x1="1095.9" y1="320" x2="1095.9" y2="326" stroke="#afc8cb"/>
<text x="1095.9" y="344.0" text-anchor="middle" font-size="16" font-weight="normal" fill="#afc8cb">300</text>
<line x1="1170.0" y1="15" x2="1170.0" y2="320" stroke="#24454d"/>
<line x1="1170.0" y1="320" x2="1170.0" y2="326" stroke="#afc8cb"/>
<text x="1170.0" y="344.0" text-anchor="middle" font-size="16" font-weight="normal" fill="#afc8cb">323</text>
<line x1="130" y1="320" x2="1170" y2="320" stroke="#afc8cb"/>
<text x="650.0" y="370.0" text-anchor="middle" font-size="16" font-weight="normal" fill="#afc8cb">Time since step start (µs)</text>
<text x="116" y="61.0" text-anchor="end" font-size="18" fill="#afc8cb">Initiator TX</text>
<rect x="130.0" y="30" width="6.4" height="50" fill="#6f9199"/>
<rect x="136.4" y="30" width="128.8" height="50" fill="#65e4d0"/>
<text x="200.8" y="60.7" text-anchor="middle" font-size="17" font-weight="bold" fill="#09242b">P1</text>
<rect x="265.2" y="30" width="6.4" height="50" fill="#6f9199"/>
<rect x="271.7" y="30" width="128.8" height="50" fill="#d9bd86"/>
<text x="336.1" y="60.7" text-anchor="middle" font-size="17" font-weight="bold" fill="#09242b">Extension</text>
<rect x="400.5" y="30" width="16.1" height="50" fill="#6f9199"/>
<text x="408.5" y="98.0" text-anchor="middle" font-size="15" font-weight="normal" fill="#f5f5ed">T<tspan dy="4.5" font-size="10.8">RD</tspan></text>
<text x="133.2" y="98.0" text-anchor="middle" font-size="15" font-weight="normal" fill="#f5f5ed">T<tspan dy="4.5" font-size="10.8">SW</tspan></text>
<text x="268.5" y="98.0" text-anchor="middle" font-size="15" font-weight="normal" fill="#f5f5ed">T<tspan dy="4.5" font-size="10.8">SW</tspan></text>
<text x="116" y="166.0" text-anchor="end" font-size="18" fill="#afc8cb">Reflector TX</text>
<rect x="883.4" y="135" width="6.4" height="50" fill="#6f9199"/>
<rect x="889.9" y="135" width="128.8" height="50" fill="#65e4d0"/>
<text x="954.3" y="165.7" text-anchor="middle" font-size="17" font-weight="bold" fill="#09242b">P1</text>
<rect x="1018.7" y="135" width="6.4" height="50" fill="#6f9199"/>
<rect x="1025.1" y="135" width="128.8" height="50" fill="#d9bd86"/>
<text x="1089.5" y="165.7" text-anchor="middle" font-size="17" font-weight="bold" fill="#09242b">Extension</text>
<rect x="1153.9" y="135" width="16.1" height="50" fill="#6f9199"/>
<text x="1162.0" y="203.0" text-anchor="middle" font-size="15" font-weight="normal" fill="#f5f5ed">T<tspan dy="4.5" font-size="10.8">RD</tspan></text>
<text x="886.7" y="203.0" text-anchor="middle" font-size="15" font-weight="normal" fill="#f5f5ed">T<tspan dy="4.5" font-size="10.8">SW</tspan></text>
<text x="1021.9" y="203.0" text-anchor="middle" font-size="15" font-weight="normal" fill="#f5f5ed">T<tspan dy="4.5" font-size="10.8">SW</tspan></text>
<text x="116" y="271.0" text-anchor="end" font-size="18" fill="#afc8cb">Timing</text>
<rect x="416.6" y="240" width="466.9" height="50" fill="#6f9199"/>
<text x="650.0" y="270.7" text-anchor="middle" font-size="17" font-weight="bold" fill="#09242b">T<tspan dy="5.1" font-size="12.2">IP2</tspan></text>
<rect x="130" y="392" width="18" height="18" fill="#65e4d0"/>
<text x="156" y="407" font-size="16" fill="#f5f5ed">Transmission</text>
<rect x="299.68" y="392" width="18" height="18" fill="#6f9199"/>
<text x="325.68" y="407" font-size="16" fill="#f5f5ed">Guard, ramp-down, switch or interlude</text>
<rect x="685.36" y="392" width="18" height="18" fill="#d9bd86"/>
<text x="711.36" y="407" font-size="16" fill="#f5f5ed">Tone extension slot</text>
<text x="130" y="434" font-size="15" fill="#afc8cb">Mode 2 step: 323 µs, drawn to scale. Planner defaults: LE 2M CS_SYNC, T_IP2 = 145 µs, T_SW = 2 µs, T_PM = 40 µs, 1 antenna path.</text>
</svg>
